<?xml version="1.0" encoding="UTF-8" standalone="no"?><!-- Generator: Gravit.io --><svg xmlns="http://www.w3.org/2000/svg" xmlns:xlink="http://www.w3.org/1999/xlink" style="isolation:isolate" viewBox="0 0 124 211" width="124pt" height="211pt"><defs><clipPath id="_clipPath_nbQDHez3B6AMq6lvPLsjadDtEuhDBKLD"><rect width="124" height="211"/></clipPath></defs><g clip-path="url(#_clipPath_nbQDHez3B6AMq6lvPLsjadDtEuhDBKLD)"><g><g><g><g><path d="M 4.357 58.492 L 119.643 58.492 C 121.903 58.492 123.738 60.327 123.738 62.587 L 123.738 206.523 C 123.738 208.783 121.903 210.618 119.643 210.618 L 4.357 210.618 C 2.097 210.618 0.262 208.783 0.262 206.523 L 0.262 62.587 C 0.262 60.327 2.097 58.492 4.357 58.492 Z" style="stroke:none;fill:#FBA33F;stroke-miterlimit:10;opacity:0.85;"/><line x1="19.5" y1="110.202" x2="104.5" y2="110.202" vector-effect="non-scaling-stroke" stroke-width="4" stroke="rgb(46,46,46)" stroke-linejoin="miter" stroke-linecap="square" stroke-miterlimit="3"/><line x1="19.5" y1="123.28" x2="104.5" y2="123.28" vector-effect="non-scaling-stroke" stroke-width="4" stroke="rgb(46,46,46)" stroke-linejoin="miter" stroke-linecap="square" stroke-miterlimit="3"/><line x1="19.5" y1="137.392" x2="67.262" y2="137.392" vector-effect="non-scaling-stroke" stroke-width="4" stroke="rgb(46,46,46)" stroke-linejoin="miter" stroke-linecap="square" stroke-miterlimit="3"/><path d=" M 92.512 175.264 L 92.512 175.264 L 92.512 175.264 Q 90.974 175.264 90.13 176.42 L 90.13 176.42 L 90.13 176.42 Q 89.286 177.576 89.286 179.641 L 89.286 179.641 L 89.286 179.641 Q 89.286 183.939 92.512 183.939 L 92.512 183.939 L 92.512 183.939 Q 93.865 183.939 95.79 183.262 L 95.79 183.262 L 95.79 185.547 L 95.79 185.547 Q 94.208 186.207 92.257 186.207 L 92.257 186.207 L 92.257 186.207 Q 89.453 186.207 87.968 184.506 L 87.968 184.506 L 87.968 184.506 Q 86.482 182.805 86.482 179.624 L 86.482 179.624 L 86.482 179.624 Q 86.482 177.62 87.212 176.112 L 87.212 176.112 L 87.212 176.112 Q 87.941 174.605 89.308 173.801 L 89.308 173.801 L 89.308 173.801 Q 90.675 172.997 92.512 172.997 L 92.512 172.997 L 92.512 172.997 Q 94.384 172.997 96.273 173.902 L 96.273 173.902 L 95.394 176.117 L 95.394 176.117 Q 94.674 175.774 93.944 175.519 L 93.944 175.519 L 93.944 175.519 Q 93.215 175.264 92.512 175.264 Z  M 103.419 180.828 L 105.853 173.181 L 108.604 173.181 L 104.236 186.031 L 101.266 186.031 L 96.906 173.181 L 99.657 173.181 L 102.074 180.828 L 102.074 180.828 Q 102.276 181.505 102.492 182.405 L 102.492 182.405 L 102.492 182.405 Q 102.707 183.306 102.76 183.658 L 102.76 183.658 L 102.76 183.658 Q 102.856 182.849 103.419 180.828 L 103.419 180.828 L 103.419 180.828 Z " fill="rgb(46,46,46)"/></g><path d=" M 49.257 38.195 L 38.564 38.195 L 50.282 58.492 L 62 78.788 L 73.718 58.492 L 85.436 38.195 L 74.743 38.195 L 73.718 39.97 L 62 60.267 L 50.282 39.97 L 49.257 38.195 L 49.257 38.195 L 49.257 38.195 Z  M 54.888 32.858 C 54.888 28.932 58.075 25.745 62 25.745 C 65.925 25.745 69.112 28.932 69.112 32.858 C 69.112 36.783 65.925 39.97 62 39.97 C 58.075 39.97 54.888 36.783 54.888 32.858 L 54.888 32.858 L 54.888 32.858 Z  M 56.853 16.438 C 56.853 13.597 59.159 11.291 62 11.291 C 64.841 11.291 67.147 13.597 67.147 16.438 C 67.147 19.279 64.841 21.585 62 21.585 C 59.159 21.585 56.853 19.279 56.853 16.438 L 56.853 16.438 Z  M 58.626 3.757 C 58.626 1.894 60.138 0.382 62 0.382 C 63.862 0.382 65.374 1.894 65.374 3.757 C 65.374 5.619 63.862 7.131 62 7.131 C 60.138 7.131 58.626 5.619 58.626 3.757 Z " fill-rule="evenodd" fill="rgb(46,46,46)"/></g></g></g></g></svg>