<?xml version="1.0" encoding="UTF-8" standalone="no"?><!-- Generator: Gravit.io --><svg xmlns="http://www.w3.org/2000/svg" xmlns:xlink="http://www.w3.org/1999/xlink" style="isolation:isolate" viewBox="0 0 124 188" width="124pt" height="188pt"><defs><clipPath id="_clipPath_iUUEleUCJyKy8ae5xmo2c8ABQcGXHRis"><rect width="124" height="188"/></clipPath></defs><g clip-path="url(#_clipPath_iUUEleUCJyKy8ae5xmo2c8ABQcGXHRis)"><g><path d="M 7.67 58.374 L 116.33 58.374 C 120.419 58.374 123.738 61.694 123.738 65.783 L 123.738 180.326 C 123.738 184.415 120.419 187.735 116.33 187.735 L 7.67 187.735 C 3.581 187.735 0.262 184.415 0.262 180.326 L 0.262 65.783 C 0.262 61.694 3.581 58.374 7.67 58.374 Z" style="stroke:none;fill:#3A5699;stroke-miterlimit:10;opacity:0.62;"/><line x1="19.5" y1="102.346" x2="104.5" y2="102.346" vector-effect="non-scaling-stroke" stroke-width="4" stroke="rgb(46,46,46)" stroke-linejoin="miter" stroke-linecap="square" stroke-miterlimit="3"/><line x1="19.5" y1="113.468" x2="104.5" y2="113.468" vector-effect="non-scaling-stroke" stroke-width="4" stroke="rgb(46,46,46)" stroke-linejoin="miter" stroke-linecap="square" stroke-miterlimit="3"/><line x1="19.5" y1="125.468" x2="67.262" y2="125.468" vector-effect="non-scaling-stroke" stroke-width="4" stroke="rgb(46,46,46)" stroke-linejoin="miter" stroke-linecap="square" stroke-miterlimit="3"/><text transform="matrix(1,0,0,1,85.436,169.707)" style="font-family:'Open Sans';font-weight:700;font-size:18px;font-style:normal;font-variant-ligatures:none;fill:#2e2e2e;stroke:none;">CV</text><path d=" M 49.257 38.078 L 38.564 38.078 L 50.282 58.374 L 62 78.671 L 73.718 58.374 L 85.436 38.078 L 74.743 38.078 L 73.718 39.853 L 62 60.149 L 50.282 39.853 L 49.257 38.078 L 49.257 38.078 L 49.257 38.078 Z  M 54.888 32.74 C 54.888 28.815 58.075 25.628 62 25.628 C 65.925 25.628 69.112 28.815 69.112 32.74 C 69.112 36.666 65.925 39.853 62 39.853 C 58.075 39.853 54.888 36.666 54.888 32.74 L 54.888 32.74 L 54.888 32.74 Z  M 56.853 16.32 C 56.853 13.48 59.159 11.173 62 11.173 C 64.841 11.173 67.147 13.48 67.147 16.32 C 67.147 19.161 64.841 21.468 62 21.468 C 59.159 21.468 56.853 19.161 56.853 16.32 L 56.853 16.32 Z  M 58.626 3.639 C 58.626 1.777 60.138 0.265 62 0.265 C 63.862 0.265 65.374 1.777 65.374 3.639 C 65.374 5.501 63.862 7.013 62 7.013 C 60.138 7.013 58.626 5.501 58.626 3.639 Z " fill-rule="evenodd" fill="rgb(46,46,46)"/></g></g></svg>