<?xml version="1.0" encoding="UTF-8" standalone="no"?><!-- Generator: Gravit.io --><svg xmlns="http://www.w3.org/2000/svg" xmlns:xlink="http://www.w3.org/1999/xlink" style="isolation:isolate" viewBox="0 0 114 160" width="114pt" height="160pt"><defs><clipPath id="_clipPath_c06YW75QRBb0ZNeYj1HpmLLm6HEOt9kI"><rect width="114" height="160"/></clipPath></defs><g clip-path="url(#_clipPath_c06YW75QRBb0ZNeYj1HpmLLm6HEOt9kI)"><g><path d=" M 14.475 73.723 L 99.076 73.723 L 106.077 49.309 C 107.031 45.984 107.805 40.677 107.805 37.466 L 107.805 37.466 C 107.805 34.254 106.574 29.123 105.059 26.014 L 101.822 19.375 C 100.307 16.266 96.685 12.27 93.739 10.457 L 89.865 8.074 C 86.92 6.261 81.866 3.897 78.586 2.799 C 68.415 -0.607 49.931 -0.589 35.092 3.228 C 31.742 4.09 26.631 6.261 23.685 8.074 L 19.812 10.457 C 16.866 12.27 13.349 16.314 11.963 19.483 L 9.153 25.905 C 7.767 29.074 6.641 34.254 6.641 37.466 L 6.641 37.466 C 6.641 40.677 7.341 46.004 8.203 49.354 L 14.475 73.723 Z " fill="rgb(0,0,0)"/><path d=" M 13.594 102.448 C 13.596 113.715 13.845 122.052 14.475 127.439 C 14.742 129.72 17.496 131.691 34.394 141.315 Q 42.228 147.134 47.823 151.61 C 51.426 154.493 60.58 153.625 62.874 151.61 L 77.926 141.315 C 88.375 133.371 98.691 131.292 99.076 127.439 C 99.686 121.334 100.058 112.597 100.181 102.234 C 101.354 103.472 102.662 104.162 104.041 104.162 C 109.083 104.162 111.386 94.936 111.386 83.571 C 111.386 77.889 114.83 71.184 113.176 67.457 C 111.523 63.73 106.562 62.98 104.041 62.98 C 102.514 62.98 101.074 63.827 99.812 65.334 C 99.624 59.174 99.379 52.918 99.076 46.698 L 96.697 37.018 L 84.528 28.066 L 29.023 28.066 L 16.854 37.018 L 14.475 46.698 C 14.332 53.261 14.199 59.46 14.088 65.211 C 12.849 63.782 11.445 62.98 9.959 62.98 C 7.438 62.98 2.477 63.73 0.824 67.457 C -0.83 71.184 2.614 77.889 2.614 83.571 C 2.614 94.936 4.917 104.162 9.959 104.162 C 11.252 104.162 12.482 103.555 13.594 102.448 Z " fill-rule="evenodd" fill="rgb(121,102,72)"/><path d=" M 14.475 65.666 L 16.854 49.552 L 16.854 46.698 L 23.651 31.647 C 45.141 29.852 66.935 29.861 89.004 31.647 L 96.166 46.698 L 96.166 48.656 L 100.643 65.666 L 100.643 26.275 C 69.561 -1.156 40.036 0.055 12.013 29.856 L 14.475 79.99" fill="rgb(0,0,0)"/><path d=" M 43.347 146.299 C 43.347 142.601 48.892 146.717 51.404 146.299 C 53.916 145.88 53.394 140.927 57.223 140.927 C 61.052 140.927 61.426 145.88 63.937 146.299 C 66.449 146.717 71.099 142.601 71.099 146.299 C 71.099 153.694 64.882 159.698 57.223 159.698 C 49.564 159.698 43.347 153.694 43.347 146.299 Z " fill="rgb(0,0,0)"/><linearGradient id="_lgradient_0" x1="0.3046874999999999" y1="0.7" x2="0.7499999999999998" y2="-0.05000000000000038" gradientTransform="matrix(7.162,0,0,31.334,96.166,48.656)" gradientUnits="userSpaceOnUse"><stop offset="0%" stop-opacity="1" style="stop-color:rgb(102,85,60)"/><stop offset="100%" stop-opacity="1" style="stop-color:rgb(0,0,0)"/></linearGradient><path d=" M 99.001 79.1 L 98.852 79.99 L 96.166 48.656 L 103.328 57.609 L 99.001 79.1 Z " fill="url(#_lgradient_0)"/><linearGradient id="_lgradient_1" x1="0.3046874999999999" y1="0.7" x2="0.7499999999999998" y2="-0.05000000000000038" gradientTransform="matrix(-6.632,0,0,30.439,16.854,49.552)" gradientUnits="userSpaceOnUse"><stop offset="0%" stop-opacity="1" style="stop-color:rgb(102,85,60)"/><stop offset="100%" stop-opacity="1" style="stop-color:rgb(0,0,0)"/></linearGradient><path d=" M 14.341 79.1 L 14.49 79.99 L 16.854 49.552 L 10.222 56.714 L 14.341 79.1 Z " fill="url(#_lgradient_1)"/></g></g></svg>